<svg xmlns="http://www.w3.org/2000/svg" width="21.379" height="29.352" viewBox="0 0 21.379 29.352"><g transform="translate(-18 -6.105)"><path d="M38.711,21.947h-.04a21.355,21.355,0,0,0-4.249.7,23.253,23.253,0,0,0-5.732,2.372,23.253,23.253,0,0,0-5.732-2.372,21.355,21.355,0,0,0-4.249-.7h-.07a.668.668,0,0,0-.638.668v9.019a.668.668,0,0,0,.628.668,20.19,20.19,0,0,1,3.985.658,22.047,22.047,0,0,1,5.742,2.4.668.668,0,0,0,.688,0,22.047,22.047,0,0,1,5.722-2.4,20.189,20.189,0,0,1,3.985-.648.668.668,0,0,0,.628-.668V22.625a.668.668,0,0,0-.668-.678Zm-.668,9.093a21.171,21.171,0,0,0-3.621.638,23.253,23.253,0,0,0-5.732,2.368,23.253,23.253,0,0,0-5.732-2.368,21.171,21.171,0,0,0-3.621-.638V23.356a19.862,19.862,0,0,1,3.277.575,22.381,22.381,0,0,1,5.408,2.211v5.826a.668.668,0,1,0,1.336.02V26.142a22.381,22.381,0,0,1,5.408-2.211,19.862,19.862,0,0,1,3.277-.575Zm-2.131-11a10.609,10.609,0,0,0-5.345-2.589,6.928,6.928,0,0,0,1.72-2.088,9.634,9.634,0,0,0,1.336-4.476,4.961,4.961,0,0,0-9.914,0,9.634,9.634,0,0,0,1.336,4.476,6.928,6.928,0,0,0,1.72,2.088,10.609,10.609,0,0,0-5.345,2.589.668.668,0,0,0,.905.982,9.019,9.019,0,0,1,2.753-1.71,9.58,9.58,0,0,1,3.611-.691,9.47,9.47,0,0,1,6.317,2.4.668.668,0,0,0,.905-.982Zm-7.222-3.708A2.8,2.8,0,0,1,26.237,14.7a8.855,8.855,0,0,1-1.169-3.818,3.622,3.622,0,0,1,7.242,0A8.855,8.855,0,0,1,31.141,14.7,2.8,2.8,0,0,1,28.689,16.328Z" transform="translate(0 0)" fill="#e4171e"/><path d="M40.706,57.75v7.683a21.171,21.171,0,0,0-3.621.638,23.253,23.253,0,0,0-5.732,2.368,23.253,23.253,0,0,0-5.732-2.368A21.171,21.171,0,0,0,22,65.433V57.75a19.862,19.862,0,0,1,3.277.575,22.38,22.38,0,0,1,5.408,2.211v5.826a.668.668,0,0,0,1.336.02V60.536a22.381,22.381,0,0,1,5.408-2.211A19.863,19.863,0,0,1,40.706,57.75Z" transform="translate(-2.664 -34.394)" fill="#e4171e"/></g></svg>