<svg xmlns="http://www.w3.org/2000/svg" width="17.855" height="14.511" viewBox="0 0 17.855 14.511"><g transform="translate(-0.793 -3.972)"><path d="M29.984,6v4.484H25.5" transform="translate(-12.042 -0.751)" fill="none" stroke="#e0e0e0" stroke-linecap="round" stroke-linejoin="round" stroke-width="1"/><path d="M1.5,25.484V21H5.984" transform="translate(0 -8.278)" fill="none" stroke="#e0e0e0" stroke-linecap="round" stroke-linejoin="round" stroke-width="1"/><path d="M3.376,8.986a6.726,6.726,0,0,1,11.1-2.511l3.468,3.258M1.5,12.722l3.468,3.258a6.726,6.726,0,0,0,11.1-2.511" transform="translate(0 0)" fill="none" stroke="#e0e0e0" stroke-linecap="round" stroke-linejoin="round" stroke-width="1"/><path d="M3.376,8.986a6.726,6.726,0,0,1,11.1-2.511l3.468,3.258M1.5,12.722l3.468,3.258a6.726,6.726,0,0,0,11.1-2.511" transform="translate(0 0)" fill="none" stroke="#e0e0e0" stroke-linecap="round" stroke-linejoin="round" stroke-width="1"/></g></svg>