<svg xmlns="http://www.w3.org/2000/svg" width="22.432" height="19.628" viewBox="0 0 22.432 19.628"><path d="M10.515,5.054h2.8a.7.7,0,0,0,.7-.7v-1.4a.7.7,0,0,0-.7-.7h-2.8a.7.7,0,0,0-.7.7v1.4A.7.7,0,0,0,10.515,5.054Zm0,5.608h5.608a.7.7,0,0,0,.7-.7v-1.4a.7.7,0,0,0-.7-.7H10.515a.7.7,0,0,0-.7.7v1.4A.7.7,0,0,0,10.515,10.662Zm11.216,8.412H10.515a.7.7,0,0,0-.7.7v1.4a.7.7,0,0,0,.7.7H21.731a.7.7,0,0,0,.7-.7v-1.4A.7.7,0,0,0,21.731,19.074Zm-11.216-2.8h8.412a.7.7,0,0,0,.7-.7v-1.4a.7.7,0,0,0-.7-.7H10.515a.7.7,0,0,0-.7.7v1.4A.7.7,0,0,0,10.515,16.27Zm-2.8,0h-2.1V2.951a.7.7,0,0,0-.7-.7H3.5a.7.7,0,0,0-.7.7V16.27H.7a.7.7,0,0,0-.495,1.2l3.5,4.206a.7.7,0,0,0,.991,0l3.5-4.206A.7.7,0,0,0,7.711,16.27Z" transform="translate(0 -2.25)"/></svg>